# xmcd
#
# Track frame offsets:
#	150
#	15543
#	34457
#	55187
#	57622
#	76536
#	94547
#	122017
#	142825
#	158242
#	189555
#	211852
#
# Disc length: 3107 seconds
#
# Revision: 1
# Processed by: cddbd v1.5.2PL0 Copyright (c) Steve Scherf et al.
# Submitted via: audiograbber 1.83.01
#
DISCID=960c210c
DTITLE=Laurie Morvan - Cures What Ails Ya
DYEAR=2007
DGENRE=Blues
TTITLE0=Kickin' Down Doors
TTITLE1=My Baby Says
TTITLE2=Where Are The Girls With Guitars
TTITLE3=Way Down
TTITLE4=One Little Thing
TTITLE5=A Long Time Ago
TTITLE6=When I'm Queen
TTITLE7=Family Line
TTITLE8=Wiggle Room
TTITLE9=Keep On Believin'
TTITLE10=Don't Give It Up
TTITLE11=In The River
EXTD=
EXTT0=
EXTT1=
EXTT2=
EXTT3=
EXTT4=
EXTT5=
EXTT6=
EXTT7=
EXTT8=
EXTT9=
EXTT10=
EXTT11=
PLAYORDER=
